<svg xmlns="http://www.w3.org/2000/svg" xmlns:xlink="http://www.w3.org/1999/xlink" width="322" zoomAndPan="magnify" viewBox="0 0 241.5 48.75" height="65" preserveAspectRatio="xMidYMid meet" version="1.0"><defs><g/><clipPath id="5345a47b0a"><path d="M 1.84375 0.699219 L 48.851562 0.699219 L 48.851562 47.707031 L 1.84375 47.707031 Z M 1.84375 0.699219 " clip-rule="nonzero"/></clipPath><clipPath id="516a67884d"><path d="M 51 0 L 240.636719 0 L 240.636719 48.5 L 51 48.5 Z M 51 0 " clip-rule="nonzero"/></clipPath><clipPath id="ec1585b077"><rect x="0" width="190" y="0" height="49"/></clipPath></defs><g clip-path="url(#5345a47b0a)"><path fill="#000000" d="M 35.535156 37.984375 L 37.261719 41.453125 C 38.300781 40.730469 39.277344 39.917969 40.167969 39.027344 C 43.960938 35.234375 46.304688 29.996094 46.304688 24.210938 C 46.304688 18.425781 43.960938 13.1875 40.167969 9.398438 C 36.378906 5.605469 31.140625 3.261719 25.355469 3.261719 C 19.570312 3.261719 14.332031 5.605469 10.539062 9.394531 C 6.75 13.1875 4.40625 18.425781 4.40625 24.210938 C 4.40625 29.996094 6.75 35.234375 10.539062 39.023438 C 11.460938 39.945312 12.460938 40.777344 13.535156 41.511719 L 15.648438 37.984375 L 18.617188 37.984375 L 15.722656 42.820312 C 18.605469 44.316406 21.878906 45.160156 25.355469 45.160156 C 28.863281 45.160156 32.167969 44.300781 35.074219 42.777344 L 32.691406 37.984375 Z M 25.355469 0.703125 C 31.847656 0.703125 37.722656 3.335938 41.976562 7.589844 C 46.230469 11.84375 48.859375 17.71875 48.859375 24.210938 C 48.859375 30.703125 46.230469 36.578125 41.976562 40.832031 C 37.722656 45.085938 31.847656 47.714844 25.355469 47.714844 C 18.863281 47.714844 12.988281 45.085938 8.734375 40.832031 C 4.480469 36.578125 1.851562 30.703125 1.851562 24.210938 C 1.851562 17.71875 4.480469 11.84375 8.734375 7.589844 C 12.988281 3.335938 18.863281 0.703125 25.355469 0.703125 Z M 25.355469 0.703125 " fill-opacity="1" fill-rule="nonzero"/></g><path fill="#000000" d="M 9.054688 13.035156 L 13.441406 11.859375 C 15.855469 11.210938 18.359375 12.65625 19.003906 15.070312 L 22.378906 27.671875 L 35.425781 27.671875 C 37.925781 27.671875 39.96875 29.71875 39.96875 32.214844 L 39.96875 36.757812 L 15.410156 36.757812 Z M 9.054688 13.035156 " fill-opacity="1" fill-rule="evenodd"/><g clip-path="url(#516a67884d)"><g transform="matrix(1, 0, 0, 1, 51, 0.000000000000008417)"><g clip-path="url(#ec1585b077)"><g fill="#000000" fill-opacity="1"><g transform="translate(1.13533, 37.689286)"><g><path d="M 1.296875 -29.34375 L 9.25 -29.34375 C 11.394531 -29.34375 12.953125 -28.816406 13.921875 -27.765625 C 14.890625 -26.722656 15.375 -25.015625 15.375 -22.640625 L 15.375 -21.34375 C 15.375 -18.539062 14.367188 -16.867188 12.359375 -16.328125 C 13.585938 -16.003906 14.453125 -15.257812 14.953125 -14.09375 C 15.460938 -12.9375 15.71875 -11.40625 15.71875 -9.5 C 15.71875 -6.375 15.25 -4.007812 14.3125 -2.40625 C 13.375 -0.800781 11.6875 0 9.25 0 L 1.296875 0 Z M 8.234375 -18.3125 C 8.734375 -18.3125 9.070312 -18.5 9.25 -18.875 C 9.4375 -19.25 9.53125 -19.773438 9.53125 -20.453125 L 9.53125 -23.390625 C 9.53125 -24.347656 9.109375 -24.828125 8.265625 -24.828125 L 7.03125 -24.828125 L 7.03125 -18.3125 Z M 7.609375 -5.15625 C 9.140625 -5.15625 9.90625 -5.882812 9.90625 -7.34375 L 9.90625 -11 C 9.90625 -11.882812 9.773438 -12.554688 9.515625 -13.015625 C 9.253906 -13.472656 8.789062 -13.703125 8.125 -13.703125 L 7.03125 -13.703125 L 7.03125 -5.1875 Z M 7.609375 -5.15625 "/></g></g></g><g fill="#000000" fill-opacity="1"><g transform="translate(20.330488, 37.689286)"><g><path d="M 1.296875 -29.34375 L 9.390625 -29.34375 C 11.484375 -29.34375 13.050781 -28.757812 14.09375 -27.59375 C 15.144531 -26.4375 15.6875 -24.71875 15.71875 -22.4375 L 15.78125 -8.703125 C 15.800781 -5.816406 15.296875 -3.644531 14.265625 -2.1875 C 13.242188 -0.726562 11.550781 0 9.1875 0 L 1.296875 0 Z M 8.234375 -5.1875 C 9.304688 -5.1875 9.84375 -5.710938 9.84375 -6.765625 L 9.84375 -21.890625 C 9.84375 -22.554688 9.789062 -23.050781 9.6875 -23.375 C 9.582031 -23.707031 9.390625 -23.929688 9.109375 -24.046875 C 8.835938 -24.160156 8.421875 -24.21875 7.859375 -24.21875 L 7.203125 -24.21875 L 7.203125 -5.1875 Z M 8.234375 -5.1875 "/></g></g></g><g fill="#000000" fill-opacity="1"><g transform="translate(40.003814, 37.689286)"><g><path d="M 1.296875 0 L 1.296875 -29.34375 L 13.046875 -29.34375 L 13.046875 -23.640625 L 7.203125 -23.640625 L 7.203125 -18.953125 L 12.734375 -18.953125 L 12.734375 -13.328125 L 7.203125 -13.328125 L 7.203125 0 Z M 1.296875 0 "/></g></g></g><g fill="#000000" fill-opacity="1"><g transform="translate(56.466599, 37.689286)"><g><path d="M 6.015625 0.265625 C 4.140625 0.265625 2.851562 -0.289062 2.15625 -1.40625 C 1.46875 -2.519531 1.125 -4.179688 1.125 -6.390625 L 1.125 -25 L 7.140625 -25 L 7.140625 -7.578125 C 7.140625 -7.421875 7.140625 -6.992188 7.140625 -6.296875 C 7.140625 -5.609375 7.242188 -5.117188 7.453125 -4.828125 C 7.671875 -4.546875 8.007812 -4.40625 8.46875 -4.40625 C 9.082031 -4.40625 9.46875 -4.660156 9.625 -5.171875 C 9.789062 -5.679688 9.875 -6.414062 9.875 -7.375 L 9.875 -7.578125 L 9.90625 -25 L 15.84375 -25 L 15.84375 0 L 9.875 0 L 9.875 -2.671875 C 9.457031 -1.617188 8.972656 -0.863281 8.421875 -0.40625 C 7.878906 0.0390625 7.078125 0.265625 6.015625 0.265625 Z M 6.015625 0.265625 "/></g></g></g><g fill="#000000" fill-opacity="1"><g transform="translate(76.344858, 37.689286)"><g><path d="M 1.203125 -25 L 7.171875 -25 L 7.171875 -22.234375 C 7.460938 -23.210938 7.976562 -23.96875 8.71875 -24.5 C 9.46875 -25.039062 10.382812 -25.3125 11.46875 -25.3125 L 11.46875 -20.328125 C 10.632812 -20.328125 9.707031 -20.207031 8.6875 -19.96875 C 7.675781 -19.726562 7.171875 -19.445312 7.171875 -19.125 L 7.171875 0 L 1.203125 0 Z M 1.203125 -25 "/></g></g></g><g fill="#000000" fill-opacity="1"><g transform="translate(90.929132, 37.689286)"><g><path d="M 1.203125 -25 L 7.171875 -25 L 7.171875 -21.828125 C 7.421875 -22.847656 7.851562 -23.675781 8.46875 -24.3125 C 9.082031 -24.957031 9.90625 -25.28125 10.9375 -25.28125 C 12.613281 -25.28125 13.851562 -24.757812 14.65625 -23.71875 C 15.46875 -22.6875 15.875 -21.210938 15.875 -19.296875 L 15.875 0 L 10 0 L 10 -18.6875 C 10 -19.226562 9.890625 -19.691406 9.671875 -20.078125 C 9.460938 -20.472656 9.128906 -20.671875 8.671875 -20.671875 C 8.054688 -20.671875 7.648438 -20.390625 7.453125 -19.828125 C 7.265625 -19.265625 7.171875 -18.519531 7.171875 -17.59375 L 7.171875 0 L 1.203125 0 Z M 1.203125 -25 "/></g></g></g><g fill="#000000" fill-opacity="1"><g transform="translate(110.80739, 37.689286)"><g><path d="M 1.15625 -26.671875 L 1.15625 -30.84375 L 7.140625 -30.84375 L 7.140625 -26.671875 Z M 1.15625 0 L 1.15625 -25 L 7.140625 -25 L 7.140625 0 Z M 1.15625 0 "/></g></g></g><g fill="#000000" fill-opacity="1"><g transform="translate(121.942048, 37.689286)"><g><path d="M 6.359375 0.265625 C 4.785156 0.265625 3.703125 -0.0625 3.109375 -0.71875 C 2.515625 -1.375 2.21875 -2.429688 2.21875 -3.890625 L 2.21875 -19.5 L 0.546875 -19.5 L 0.546875 -24.046875 L 2.21875 -24.046875 L 2.21875 -29.34375 L 8.03125 -29.34375 L 8.03125 -24.046875 L 9.734375 -24.046875 L 9.734375 -19.5 L 8.03125 -19.5 L 8.03125 -5.46875 C 8.03125 -5.03125 8.0625 -4.707031 8.125 -4.5 C 8.195312 -4.300781 8.378906 -4.203125 8.671875 -4.203125 C 8.898438 -4.203125 9.113281 -4.210938 9.3125 -4.234375 C 9.519531 -4.253906 9.660156 -4.265625 9.734375 -4.265625 L 9.734375 -0.171875 C 9.390625 -0.078125 8.894531 0.015625 8.25 0.109375 C 7.601562 0.210938 6.972656 0.265625 6.359375 0.265625 Z M 6.359375 0.265625 "/></g></g></g><g fill="#000000" fill-opacity="1"><g transform="translate(135.194293, 37.689286)"><g><path d="M 6.015625 0.265625 C 4.140625 0.265625 2.851562 -0.289062 2.15625 -1.40625 C 1.46875 -2.519531 1.125 -4.179688 1.125 -6.390625 L 1.125 -25 L 7.140625 -25 L 7.140625 -7.578125 C 7.140625 -7.421875 7.140625 -6.992188 7.140625 -6.296875 C 7.140625 -5.609375 7.242188 -5.117188 7.453125 -4.828125 C 7.671875 -4.546875 8.007812 -4.40625 8.46875 -4.40625 C 9.082031 -4.40625 9.46875 -4.660156 9.625 -5.171875 C 9.789062 -5.679688 9.875 -6.414062 9.875 -7.375 L 9.875 -7.578125 L 9.90625 -25 L 15.84375 -25 L 15.84375 0 L 9.875 0 L 9.875 -2.671875 C 9.457031 -1.617188 8.972656 -0.863281 8.421875 -0.40625 C 7.878906 0.0390625 7.078125 0.265625 6.015625 0.265625 Z M 6.015625 0.265625 "/></g></g></g><g fill="#000000" fill-opacity="1"><g transform="translate(155.072541, 37.689286)"><g><path d="M 1.203125 -25 L 7.171875 -25 L 7.171875 -22.234375 C 7.460938 -23.210938 7.976562 -23.96875 8.71875 -24.5 C 9.46875 -25.039062 10.382812 -25.3125 11.46875 -25.3125 L 11.46875 -20.328125 C 10.632812 -20.328125 9.707031 -20.207031 8.6875 -19.96875 C 7.675781 -19.726562 7.171875 -19.445312 7.171875 -19.125 L 7.171875 0 L 1.203125 0 Z M 1.203125 -25 "/></g></g></g><g fill="#000000" fill-opacity="1"><g transform="translate(169.656815, 37.689286)"><g><path d="M 8.203125 0.265625 C 5.628906 0.265625 3.78125 -0.4375 2.65625 -1.84375 C 1.539062 -3.257812 0.984375 -5.363281 0.984375 -8.15625 L 0.984375 -18.203125 C 0.984375 -20.503906 1.644531 -22.257812 2.96875 -23.46875 C 4.289062 -24.675781 6.132812 -25.28125 8.5 -25.28125 C 13.3125 -25.28125 15.71875 -22.921875 15.71875 -18.203125 L 15.71875 -16.390625 C 15.71875 -14.566406 15.691406 -13.085938 15.640625 -11.953125 L 6.96875 -11.953125 L 6.96875 -7.109375 C 6.96875 -6.242188 7.054688 -5.566406 7.234375 -5.078125 C 7.421875 -4.585938 7.8125 -4.34375 8.40625 -4.34375 C 8.851562 -4.34375 9.175781 -4.476562 9.375 -4.75 C 9.570312 -5.019531 9.6875 -5.332031 9.71875 -5.6875 C 9.75 -6.039062 9.765625 -6.554688 9.765625 -7.234375 L 9.765625 -9.671875 L 15.71875 -9.671875 L 15.71875 -8.234375 C 15.71875 -5.316406 15.148438 -3.171875 14.015625 -1.796875 C 12.890625 -0.421875 10.953125 0.265625 8.203125 0.265625 Z M 9.765625 -14.921875 L 9.765625 -18.140625 C 9.765625 -19.929688 9.320312 -20.828125 8.4375 -20.828125 C 7.4375 -20.828125 6.9375 -19.929688 6.9375 -18.140625 L 6.9375 -14.921875 Z M 9.765625 -14.921875 "/></g></g></g></g></g></g></svg>