<svg xmlns="http://www.w3.org/2000/svg" xmlns:xlink="http://www.w3.org/1999/xlink" width="60" zoomAndPan="magnify" viewBox="0 0 45 44.999999" height="60" preserveAspectRatio="xMidYMid meet" version="1.0"><path fill="#000000" d="M 32.253906 35.691406 L 33.902344 39.011719 C 34.898438 38.320312 35.832031 37.542969 36.6875 36.6875 C 40.316406 33.058594 42.558594 28.046875 42.558594 22.507812 C 42.558594 16.96875 40.316406 11.957031 36.6875 8.324219 C 33.058594 4.695312 28.042969 2.449219 22.507812 2.449219 C 16.96875 2.449219 11.953125 4.695312 8.324219 8.324219 C 4.695312 11.953125 2.449219 16.96875 2.449219 22.507812 C 2.449219 28.042969 4.695312 33.058594 8.324219 36.6875 C 9.203125 37.566406 10.164062 38.363281 11.191406 39.066406 L 13.214844 35.691406 L 16.054688 35.691406 L 13.285156 40.320312 C 16.042969 41.753906 19.179688 42.5625 22.507812 42.5625 C 25.863281 42.5625 29.027344 41.734375 31.808594 40.277344 L 29.527344 35.691406 Z M 22.507812 0.00390625 C 28.71875 0.00390625 34.34375 2.523438 38.417969 6.59375 C 42.488281 10.667969 45.007812 16.292969 45.007812 22.507812 C 45.007812 28.71875 42.488281 34.34375 38.417969 38.417969 C 34.34375 42.488281 28.71875 45.007812 22.507812 45.007812 C 16.292969 45.007812 10.667969 42.488281 6.59375 38.417969 C 2.523438 34.34375 0.00390625 28.71875 0.00390625 22.507812 C 0.00390625 16.292969 2.523438 10.667969 6.59375 6.59375 C 10.667969 2.523438 16.292969 0.00390625 22.507812 0.00390625 Z M 22.507812 0.00390625 " fill-opacity="1" fill-rule="nonzero"/><path fill="#000000" d="M 6.902344 11.804688 L 11.101562 10.679688 C 13.410156 10.0625 15.808594 11.445312 16.425781 13.757812 L 19.660156 25.820312 L 32.148438 25.820312 C 34.539062 25.820312 36.496094 27.777344 36.496094 30.167969 L 36.496094 34.515625 L 12.988281 34.515625 Z M 6.902344 11.804688 " fill-opacity="1" fill-rule="evenodd"/></svg>